M48
; DRILL file {KiCad 8.0.1} date 2024-04-22T22:36:15-0400
; FORMAT={-:-/ absolute / inch / decimal}
; #@! TF.CreationDate,2024-04-22T22:36:15-04:00
; #@! TF.GenerationSoftware,Kicad,Pcbnew,8.0.1
; #@! TF.FileFunction,Plated,1,2,PTH
FMAT,2
INCH
; #@! TA.AperFunction,Plated,PTH,ViaDrill
T1C0.0118
; #@! TA.AperFunction,Plated,PTH,ComponentDrill
T2C0.0394
; #@! TA.AperFunction,Plated,PTH,ComponentDrill
T3C0.0433
%
G90
G05
T1
X2.8307Y-4.2835
X2.8536Y-3.5202
X2.9016Y-4.1319
X2.9323Y-3.3844
X3.1093Y-4.0512
X3.139Y-3.3214
X3.2473Y-3.5241
X3.2864Y-4.2894
X3.9311Y-3.7874
X4.0699Y-3.8839
T2
X3.3636Y-4.5339
X3.3636Y-4.6339
X3.4636Y-4.5339
X3.4636Y-4.6339
X4.1348Y-4.4488
X4.4341Y-4.4488
T3
X3.6732Y-4.4911
X3.6732Y-4.6683
X3.9291Y-4.4911
X3.9291Y-4.6683
M30
