%TF.GenerationSoftware,KiCad,Pcbnew,8.0.1*%
%TF.CreationDate,2024-04-22T22:36:18-04:00*%
%TF.ProjectId,analogBirdSAO,616e616c-6f67-4426-9972-6453414f2e6b,rev?*%
%TF.SameCoordinates,Original*%
%TF.FileFunction,Paste,Top*%
%TF.FilePolarity,Positive*%
%FSLAX46Y46*%
G04 Gerber Fmt 4.6, Leading zero omitted, Abs format (unit mm)*
G04 Created by KiCad (PCBNEW 8.0.1) date 2024-04-22 22:36:18*
%MOMM*%
%LPD*%
G01*
G04 APERTURE LIST*
G04 Aperture macros list*
%AMRoundRect*
0 Rectangle with rounded corners*
0 $1 Rounding radius*
0 $2 $3 $4 $5 $6 $7 $8 $9 X,Y pos of 4 corners*
0 Add a 4 corners polygon primitive as box body*
4,1,4,$2,$3,$4,$5,$6,$7,$8,$9,$2,$3,0*
0 Add four circle primitives for the rounded corners*
1,1,$1+$1,$2,$3*
1,1,$1+$1,$4,$5*
1,1,$1+$1,$6,$7*
1,1,$1+$1,$8,$9*
0 Add four rect primitives between the rounded corners*
20,1,$1+$1,$2,$3,$4,$5,0*
20,1,$1+$1,$4,$5,$6,$7,0*
20,1,$1+$1,$6,$7,$8,$9,0*
20,1,$1+$1,$8,$9,$2,$3,0*%
G04 Aperture macros list end*
%ADD10RoundRect,0.250000X-0.250000X-0.475000X0.250000X-0.475000X0.250000X0.475000X-0.250000X0.475000X0*%
%ADD11RoundRect,0.250000X0.262500X0.450000X-0.262500X0.450000X-0.262500X-0.450000X0.262500X-0.450000X0*%
%ADD12RoundRect,0.250000X-0.450000X0.262500X-0.450000X-0.262500X0.450000X-0.262500X0.450000X0.262500X0*%
%ADD13RoundRect,0.150000X-0.587500X-0.150000X0.587500X-0.150000X0.587500X0.150000X-0.587500X0.150000X0*%
%ADD14RoundRect,0.250000X0.450000X-0.262500X0.450000X0.262500X-0.450000X0.262500X-0.450000X-0.262500X0*%
%ADD15RoundRect,0.250000X0.475000X-0.250000X0.475000X0.250000X-0.475000X0.250000X-0.475000X-0.250000X0*%
G04 APERTURE END LIST*
D10*
%TO.C,C1*%
X74181250Y-82800000D03*
X76081250Y-82800000D03*
%TD*%
D11*
%TO.C,R11*%
X97362500Y-90250000D03*
X95537500Y-90250000D03*
%TD*%
D12*
%TO.C,R8*%
X77581250Y-77787500D03*
X77581250Y-79612500D03*
%TD*%
%TO.C,R1*%
X72381250Y-77787500D03*
X72381250Y-79612500D03*
%TD*%
D13*
%TO.C,Q2*%
X73700000Y-106900000D03*
X73700000Y-108800000D03*
X75575000Y-107850000D03*
%TD*%
%TO.C,Q3*%
X84406250Y-87612500D03*
X84406250Y-89512500D03*
X86281250Y-88562500D03*
%TD*%
D10*
%TO.C,C2*%
X84281250Y-82562500D03*
X86181250Y-82562500D03*
%TD*%
D13*
%TO.C,Q1*%
X74393750Y-87512500D03*
X74393750Y-89412500D03*
X76268750Y-88462500D03*
%TD*%
D10*
%TO.C,C3*%
X73100000Y-101450000D03*
X75000000Y-101450000D03*
%TD*%
D12*
%TO.C,R7*%
X82631250Y-77887500D03*
X82631250Y-79712500D03*
%TD*%
D10*
%TO.C,C4*%
X85450000Y-101150000D03*
X87350000Y-101150000D03*
%TD*%
D14*
%TO.C,R9*%
X107512500Y-86725000D03*
X107512500Y-84900000D03*
%TD*%
D12*
%TO.C,R5*%
X83450000Y-96487500D03*
X83450000Y-98312500D03*
%TD*%
D14*
%TO.C,R10*%
X105237500Y-97900000D03*
X105237500Y-96075000D03*
%TD*%
D13*
%TO.C,Q4*%
X85262500Y-107050000D03*
X85262500Y-108950000D03*
X87137500Y-108000000D03*
%TD*%
D15*
%TO.C,C5*%
X100237500Y-94650000D03*
X100237500Y-92750000D03*
%TD*%
D12*
%TO.C,R3*%
X70875000Y-96625000D03*
X70875000Y-98450000D03*
%TD*%
%TO.C,R6*%
X77650000Y-96575000D03*
X77650000Y-98400000D03*
%TD*%
%TO.C,R2*%
X88431250Y-77887500D03*
X88431250Y-79712500D03*
%TD*%
D13*
%TO.C,Q5*%
X105787500Y-90275000D03*
X105787500Y-92175000D03*
X107662500Y-91225000D03*
%TD*%
D12*
%TO.C,R4*%
X89650000Y-96425000D03*
X89650000Y-98250000D03*
%TD*%
M02*
