%TF.GenerationSoftware,KiCad,Pcbnew,8.0.1*%
%TF.CreationDate,2024-04-22T22:36:18-04:00*%
%TF.ProjectId,analogBirdSAO,616e616c-6f67-4426-9972-6453414f2e6b,rev?*%
%TF.SameCoordinates,Original*%
%TF.FileFunction,Copper,L1,Top*%
%TF.FilePolarity,Positive*%
%FSLAX46Y46*%
G04 Gerber Fmt 4.6, Leading zero omitted, Abs format (unit mm)*
G04 Created by KiCad (PCBNEW 8.0.1) date 2024-04-22 22:36:18*
%MOMM*%
%LPD*%
G01*
G04 APERTURE LIST*
G04 Aperture macros list*
%AMRoundRect*
0 Rectangle with rounded corners*
0 $1 Rounding radius*
0 $2 $3 $4 $5 $6 $7 $8 $9 X,Y pos of 4 corners*
0 Add a 4 corners polygon primitive as box body*
4,1,4,$2,$3,$4,$5,$6,$7,$8,$9,$2,$3,0*
0 Add four circle primitives for the rounded corners*
1,1,$1+$1,$2,$3*
1,1,$1+$1,$4,$5*
1,1,$1+$1,$6,$7*
1,1,$1+$1,$8,$9*
0 Add four rect primitives between the rounded corners*
20,1,$1+$1,$2,$3,$4,$5,0*
20,1,$1+$1,$4,$5,$6,$7,0*
20,1,$1+$1,$6,$7,$8,$9,0*
20,1,$1+$1,$8,$9,$2,$3,0*%
G04 Aperture macros list end*
%TA.AperFunction,SMDPad,CuDef*%
%ADD10RoundRect,0.250000X-0.250000X-0.475000X0.250000X-0.475000X0.250000X0.475000X-0.250000X0.475000X0*%
%TD*%
%TA.AperFunction,SMDPad,CuDef*%
%ADD11RoundRect,0.250000X0.262500X0.450000X-0.262500X0.450000X-0.262500X-0.450000X0.262500X-0.450000X0*%
%TD*%
%TA.AperFunction,SMDPad,CuDef*%
%ADD12RoundRect,0.250000X-0.450000X0.262500X-0.450000X-0.262500X0.450000X-0.262500X0.450000X0.262500X0*%
%TD*%
%TA.AperFunction,SMDPad,CuDef*%
%ADD13RoundRect,0.150000X-0.587500X-0.150000X0.587500X-0.150000X0.587500X0.150000X-0.587500X0.150000X0*%
%TD*%
%TA.AperFunction,ComponentPad*%
%ADD14R,1.700000X1.700000*%
%TD*%
%TA.AperFunction,ComponentPad*%
%ADD15O,1.700000X1.700000*%
%TD*%
%TA.AperFunction,SMDPad,CuDef*%
%ADD16RoundRect,0.250000X0.450000X-0.262500X0.450000X0.262500X-0.450000X0.262500X-0.450000X-0.262500X0*%
%TD*%
%TA.AperFunction,SMDPad,CuDef*%
%ADD17RoundRect,0.250000X0.475000X-0.250000X0.475000X0.250000X-0.475000X0.250000X-0.475000X-0.250000X0*%
%TD*%
%TA.AperFunction,ComponentPad*%
%ADD18C,2.000000*%
%TD*%
%TA.AperFunction,ComponentPad*%
%ADD19R,2.000000X2.000000*%
%TD*%
%TA.AperFunction,ViaPad*%
%ADD20C,0.600000*%
%TD*%
%TA.AperFunction,Conductor*%
%ADD21C,0.500000*%
%TD*%
%TA.AperFunction,Conductor*%
%ADD22C,1.000000*%
%TD*%
G04 APERTURE END LIST*
D10*
%TO.P,C1,1*%
%TO.N,Net-(Q1-C)*%
X74181250Y-82800000D03*
%TO.P,C1,2*%
%TO.N,Net-(Q3-B)*%
X76081250Y-82800000D03*
%TD*%
D11*
%TO.P,R11,1*%
%TO.N,Net-(Q5-B)*%
X97362500Y-90250000D03*
%TO.P,R11,2*%
%TO.N,lo_freq*%
X95537500Y-90250000D03*
%TD*%
D12*
%TO.P,R8,1*%
%TO.N,Net-(R1-Pad1)*%
X77581250Y-77787500D03*
%TO.P,R8,2*%
%TO.N,Net-(Q3-B)*%
X77581250Y-79612500D03*
%TD*%
%TO.P,R1,1*%
%TO.N,Net-(R1-Pad1)*%
X72381250Y-77787500D03*
%TO.P,R1,2*%
%TO.N,Net-(Q1-C)*%
X72381250Y-79612500D03*
%TD*%
D13*
%TO.P,Q2,1,B*%
%TO.N,Net-(Q2-B)*%
X73700000Y-106900000D03*
%TO.P,Q2,2,E*%
%TO.N,GND*%
X73700000Y-108800000D03*
%TO.P,Q2,3,C*%
%TO.N,Net-(Q2-C)*%
X75575000Y-107850000D03*
%TD*%
%TO.P,Q3,1,B*%
%TO.N,Net-(Q3-B)*%
X84406250Y-87612500D03*
%TO.P,Q3,2,E*%
%TO.N,GND*%
X84406250Y-89512500D03*
%TO.P,Q3,3,C*%
%TO.N,hi_freq*%
X86281250Y-88562500D03*
%TD*%
D10*
%TO.P,C2,1*%
%TO.N,Net-(Q1-B)*%
X84281250Y-82562500D03*
%TO.P,C2,2*%
%TO.N,hi_freq*%
X86181250Y-82562500D03*
%TD*%
D13*
%TO.P,Q1,1,B*%
%TO.N,Net-(Q1-B)*%
X74393750Y-87512500D03*
%TO.P,Q1,2,E*%
%TO.N,GND*%
X74393750Y-89412500D03*
%TO.P,Q1,3,C*%
%TO.N,Net-(Q1-C)*%
X76268750Y-88462500D03*
%TD*%
D10*
%TO.P,C3,1*%
%TO.N,Net-(Q2-C)*%
X73100000Y-101450000D03*
%TO.P,C3,2*%
%TO.N,Net-(Q4-B)*%
X75000000Y-101450000D03*
%TD*%
D12*
%TO.P,R7,1*%
%TO.N,Net-(R1-Pad1)*%
X82631250Y-77887500D03*
%TO.P,R7,2*%
%TO.N,Net-(Q1-B)*%
X82631250Y-79712500D03*
%TD*%
D10*
%TO.P,C4,1*%
%TO.N,Net-(Q2-B)*%
X85450000Y-101150000D03*
%TO.P,C4,2*%
%TO.N,lo_freq*%
X87350000Y-101150000D03*
%TD*%
D14*
%TO.P,J1,1,Pin_1*%
%TO.N,+3.3V*%
X87975000Y-115160000D03*
D15*
%TO.P,J1,2,Pin_2*%
%TO.N,GND*%
X87975000Y-117700000D03*
%TO.P,J1,3,Pin_3*%
%TO.N,unconnected-(J1-Pin_3-Pad3)*%
X85435000Y-115160000D03*
%TO.P,J1,4,Pin_4*%
%TO.N,unconnected-(J1-Pin_4-Pad4)*%
X85435000Y-117700000D03*
%TD*%
D16*
%TO.P,R9,1*%
%TO.N,Net-(Q5-C)*%
X107512500Y-86725000D03*
%TO.P,R9,2*%
%TO.N,hi_freq*%
X107512500Y-84900000D03*
%TD*%
D12*
%TO.P,R5,1*%
%TO.N,Net-(R1-Pad1)*%
X83450000Y-96487500D03*
%TO.P,R5,2*%
%TO.N,Net-(Q2-B)*%
X83450000Y-98312500D03*
%TD*%
D16*
%TO.P,R10,1*%
%TO.N,GND*%
X105237500Y-97900000D03*
%TO.P,R10,2*%
%TO.N,Net-(Q5-E)*%
X105237500Y-96075000D03*
%TD*%
D13*
%TO.P,Q4,1,B*%
%TO.N,Net-(Q4-B)*%
X85262500Y-107050000D03*
%TO.P,Q4,2,E*%
%TO.N,GND*%
X85262500Y-108950000D03*
%TO.P,Q4,3,C*%
%TO.N,lo_freq*%
X87137500Y-108000000D03*
%TD*%
D17*
%TO.P,C5,1*%
%TO.N,GND*%
X100237500Y-94650000D03*
%TO.P,C5,2*%
%TO.N,Net-(Q5-B)*%
X100237500Y-92750000D03*
%TD*%
D12*
%TO.P,R3,1*%
%TO.N,Net-(R1-Pad1)*%
X70875000Y-96625000D03*
%TO.P,R3,2*%
%TO.N,Net-(Q2-C)*%
X70875000Y-98450000D03*
%TD*%
%TO.P,R6,1*%
%TO.N,Net-(R1-Pad1)*%
X77650000Y-96575000D03*
%TO.P,R6,2*%
%TO.N,Net-(Q4-B)*%
X77650000Y-98400000D03*
%TD*%
%TO.P,R2,1*%
%TO.N,Net-(R1-Pad1)*%
X88431250Y-77887500D03*
%TO.P,R2,2*%
%TO.N,hi_freq*%
X88431250Y-79712500D03*
%TD*%
D13*
%TO.P,Q5,1,B*%
%TO.N,Net-(Q5-B)*%
X105787500Y-90275000D03*
%TO.P,Q5,2,E*%
%TO.N,Net-(Q5-E)*%
X105787500Y-92175000D03*
%TO.P,Q5,3,C*%
%TO.N,Net-(Q5-C)*%
X107662500Y-91225000D03*
%TD*%
D12*
%TO.P,R4,1*%
%TO.N,Net-(R1-Pad1)*%
X89650000Y-96425000D03*
%TO.P,R4,2*%
%TO.N,lo_freq*%
X89650000Y-98250000D03*
%TD*%
D18*
%TO.P,SW1,1,1*%
%TO.N,+3.3V*%
X93300000Y-118575000D03*
X99800000Y-118575000D03*
%TO.P,SW1,2,2*%
%TO.N,Net-(R1-Pad1)*%
X93300000Y-114075000D03*
X99800000Y-114075000D03*
%TD*%
D19*
%TO.P,BZ1,1,+*%
%TO.N,hi_freq*%
X112625000Y-113000000D03*
D18*
%TO.P,BZ1,2,-*%
%TO.N,GND*%
X105025000Y-113000000D03*
%TD*%
D20*
%TO.N,GND*%
X71900000Y-108800000D03*
X72481250Y-89412500D03*
X83475000Y-108950000D03*
X82481250Y-89512500D03*
X99850000Y-96200000D03*
X103375000Y-98650000D03*
%TO.N,Net-(Q1-B)*%
X74481250Y-85962500D03*
X79731250Y-84362500D03*
%TO.N,Net-(Q2-B)*%
X73700000Y-104950000D03*
X78975000Y-102900000D03*
%TD*%
D21*
%TO.N,hi_freq*%
X87481250Y-82562500D02*
X89818750Y-84900000D01*
X87481250Y-82562500D02*
X88181250Y-83262500D01*
X87481250Y-82562500D02*
X88431250Y-81612500D01*
X110900000Y-84900000D02*
X107512500Y-84900000D01*
X112625000Y-113000000D02*
X112625000Y-86625000D01*
X86181250Y-82562500D02*
X87481250Y-82562500D01*
X88181250Y-83262500D02*
X88181250Y-86662500D01*
X89818750Y-84900000D02*
X107512500Y-84900000D01*
X112625000Y-86625000D02*
X110900000Y-84900000D01*
X88431250Y-81612500D02*
X88431250Y-79712500D01*
X88181250Y-86662500D02*
X86281250Y-88562500D01*
%TO.N,GND*%
X100237500Y-94650000D02*
X100237500Y-95837500D01*
X100237500Y-95837500D02*
X99875000Y-96200000D01*
X71900000Y-108800000D02*
X71975000Y-108800000D01*
X83525000Y-108950000D02*
X83525000Y-108950000D01*
X74393750Y-89412500D02*
X72481250Y-89412500D01*
X83475000Y-108950000D02*
X83475000Y-109000000D01*
X83475000Y-109000000D02*
X83475000Y-109000000D01*
X104000000Y-98625000D02*
X103975000Y-98650000D01*
X99850000Y-96225000D02*
X99950000Y-96125000D01*
X84406250Y-89512500D02*
X82481250Y-89512500D01*
X72481250Y-89412500D02*
X72531250Y-89412500D01*
X103375000Y-98650000D02*
X103350000Y-98650000D01*
X73700000Y-108800000D02*
X71900000Y-108800000D01*
X104725000Y-97900000D02*
X104000000Y-98625000D01*
X83525000Y-108950000D02*
X83475000Y-108950000D01*
X85262500Y-108950000D02*
X83525000Y-108950000D01*
X105237500Y-97900000D02*
X104725000Y-97900000D01*
X99875000Y-96200000D02*
X99850000Y-96200000D01*
X103975000Y-98650000D02*
X103375000Y-98650000D01*
X99850000Y-96200000D02*
X99850000Y-96225000D01*
%TO.N,Net-(Q3-B)*%
X76081250Y-81112500D02*
X77581250Y-79612500D01*
X76081250Y-82800000D02*
X76081250Y-81112500D01*
X76081250Y-82800000D02*
X80893750Y-87612500D01*
X80893750Y-87612500D02*
X84406250Y-87612500D01*
%TO.N,Net-(Q1-C)*%
X73368750Y-82800000D02*
X74181250Y-82800000D01*
X74181250Y-83762500D02*
X74181250Y-82800000D01*
X76268750Y-88462500D02*
X76831250Y-87900000D01*
X72381250Y-79612500D02*
X72381250Y-81812500D01*
X72381250Y-81812500D02*
X73368750Y-82800000D01*
X76831250Y-87900000D02*
X76831250Y-86412500D01*
X76831250Y-86412500D02*
X74181250Y-83762500D01*
%TO.N,Net-(Q1-B)*%
X74393750Y-87512500D02*
X74393750Y-86050000D01*
X82481250Y-84362500D02*
X80931250Y-84362500D01*
X84281250Y-81362500D02*
X82631250Y-79712500D01*
X84281250Y-82562500D02*
X84281250Y-81362500D01*
X84281250Y-82562500D02*
X82481250Y-84362500D01*
X80931250Y-84362500D02*
X79731250Y-84362500D01*
X79731250Y-84362500D02*
X79781250Y-84362500D01*
X74393750Y-86050000D02*
X74481250Y-85962500D01*
%TO.N,Net-(Q2-C)*%
X73100000Y-102900000D02*
X75575000Y-105375000D01*
X73100000Y-101450000D02*
X73100000Y-102900000D01*
X75575000Y-105375000D02*
X75575000Y-107850000D01*
X70875000Y-100375000D02*
X71950000Y-101450000D01*
X70875000Y-98450000D02*
X70875000Y-100375000D01*
X71950000Y-101450000D02*
X73100000Y-101450000D01*
%TO.N,Net-(Q4-B)*%
X77075000Y-98400000D02*
X77650000Y-98400000D01*
X80600000Y-107050000D02*
X85262500Y-107050000D01*
X75000000Y-100475000D02*
X77075000Y-98400000D01*
X75000000Y-101450000D02*
X75000000Y-100475000D01*
X75000000Y-101450000D02*
X80600000Y-107050000D01*
%TO.N,Net-(Q2-B)*%
X85450000Y-101150000D02*
X83700000Y-102900000D01*
X83987500Y-98312500D02*
X85450000Y-99775000D01*
X83700000Y-102900000D02*
X78975000Y-102900000D01*
X83450000Y-98312500D02*
X83987500Y-98312500D01*
X85450000Y-99775000D02*
X85450000Y-101150000D01*
X73700000Y-106900000D02*
X73700000Y-104950000D01*
%TO.N,lo_freq*%
X88875000Y-101150000D02*
X89387500Y-100637500D01*
X89650000Y-100375000D02*
X89650000Y-98250000D01*
X89387500Y-100637500D02*
X90375000Y-99650000D01*
X88825000Y-101150000D02*
X89300000Y-101625000D01*
X89300000Y-101625000D02*
X89300000Y-105837500D01*
X87350000Y-101150000D02*
X88875000Y-101150000D01*
X87350000Y-101150000D02*
X88825000Y-101150000D01*
X92650000Y-99650000D02*
X95537500Y-96762500D01*
X89300000Y-105837500D02*
X87137500Y-108000000D01*
X95537500Y-96762500D02*
X95537500Y-90250000D01*
X89387500Y-100637500D02*
X89650000Y-100375000D01*
X90375000Y-99650000D02*
X92650000Y-99650000D01*
%TO.N,Net-(Q5-B)*%
X100237500Y-91650000D02*
X101562500Y-90325000D01*
X101562500Y-90325000D02*
X105187500Y-90325000D01*
X104337500Y-90250000D02*
X104362500Y-90275000D01*
X97362500Y-90250000D02*
X104337500Y-90250000D01*
X104362500Y-90275000D02*
X105787500Y-90275000D01*
X100237500Y-92750000D02*
X100237500Y-91650000D01*
X105112500Y-90250000D02*
X105187500Y-90325000D01*
X104337500Y-90250000D02*
X105112500Y-90250000D01*
%TO.N,Net-(Q5-C)*%
X107512500Y-86725000D02*
X107512500Y-91075000D01*
X107512500Y-91075000D02*
X107662500Y-91225000D01*
%TO.N,Net-(Q5-E)*%
X105237500Y-92725000D02*
X105787500Y-92175000D01*
X105237500Y-96075000D02*
X105237500Y-92725000D01*
D22*
%TO.N,Net-(R1-Pad1)*%
X93300000Y-114075000D02*
X90775000Y-111550000D01*
X88350000Y-94125000D02*
X88525000Y-94300000D01*
X99800000Y-114075000D02*
X93300000Y-114075000D01*
D21*
X87531250Y-76012500D02*
X87731250Y-76212500D01*
X87731250Y-76212500D02*
X88431250Y-76912500D01*
X82631250Y-76962500D02*
X83381250Y-76212500D01*
X84200000Y-94925000D02*
X88975000Y-94925000D01*
X86800000Y-76012500D02*
X87531250Y-76012500D01*
X74875000Y-94750000D02*
X88175000Y-94750000D01*
D22*
X90075000Y-111550000D02*
X69525000Y-111550000D01*
D21*
X72381250Y-77787500D02*
X72381250Y-76712500D01*
D22*
X68100000Y-94125000D02*
X88350000Y-94125000D01*
D21*
X77581250Y-76712500D02*
X77581250Y-77787500D01*
X72381250Y-76712500D02*
X73081250Y-76012500D01*
X83381250Y-76212500D02*
X87731250Y-76212500D01*
X83450000Y-95675000D02*
X84200000Y-94925000D01*
D22*
X86437500Y-75650000D02*
X87125000Y-75650000D01*
X69425000Y-75650000D02*
X86437500Y-75650000D01*
X90775000Y-111550000D02*
X90075000Y-111550000D01*
D21*
X88975000Y-94925000D02*
X89650000Y-95600000D01*
X82631250Y-77887500D02*
X82631250Y-76962500D01*
D22*
X90075000Y-111550000D02*
X89425000Y-111550000D01*
X68100000Y-94125000D02*
X68100000Y-110125000D01*
D21*
X89650000Y-95600000D02*
X89650000Y-96425000D01*
X74875000Y-94750000D02*
X77375000Y-94750000D01*
D22*
X68100000Y-110125000D02*
X69525000Y-111550000D01*
D21*
X73081250Y-76012500D02*
X75231250Y-76012500D01*
X75231250Y-76012500D02*
X76881250Y-76012500D01*
X77650000Y-95025000D02*
X77650000Y-96575000D01*
X70875000Y-95575000D02*
X71700000Y-94750000D01*
X88431250Y-76912500D02*
X88431250Y-77887500D01*
X77375000Y-94750000D02*
X77650000Y-95025000D01*
X70875000Y-96625000D02*
X70875000Y-95575000D01*
X75231250Y-76012500D02*
X86800000Y-76012500D01*
X83450000Y-96487500D02*
X83450000Y-95675000D01*
X76881250Y-76012500D02*
X77581250Y-76712500D01*
D22*
X87125000Y-75650000D02*
X87200000Y-75725000D01*
D21*
X88800000Y-94750000D02*
X89650000Y-95600000D01*
X88175000Y-94750000D02*
X88800000Y-94750000D01*
X71700000Y-94750000D02*
X74875000Y-94750000D01*
D22*
X68100000Y-76975000D02*
X69425000Y-75650000D01*
X68100000Y-94125000D02*
X68100000Y-76975000D01*
%TO.N,+3.3V*%
X87975000Y-115160000D02*
X89885000Y-115160000D01*
X89885000Y-115160000D02*
X93300000Y-118575000D01*
X93300000Y-118575000D02*
X99800000Y-118575000D01*
%TD*%
M02*
